<?xml version="1.0" encoding="utf-8"?>
<!-- Generator: Adobe Illustrator 16.0.0, SVG Export Plug-In . SVG Version: 6.00 Build 0)  -->
<!DOCTYPE svg PUBLIC "-//W3C//DTD SVG 1.1//EN" "http://www.w3.org/Graphics/SVG/1.1/DTD/svg11.dtd">
<svg version="1.1" id="Layer_1" xmlns="http://www.w3.org/2000/svg" xmlns:xlink="http://www.w3.org/1999/xlink" x="0px" y="0px"
	 width="15px" height="28.67px" viewBox="0 0 15 28.67" enable-background="new 0 0 15 28.67" xml:space="preserve">
<g>
	<g>
		<g>
			
				<radialGradient id="SVGID_1_" cx="-721.208" cy="-655.3286" r="7.123" gradientTransform="matrix(-0.9966 -0.0828 -0.1644 1.9792 -818.9891 1251.7062)" gradientUnits="userSpaceOnUse">
				<stop  offset="0" style="stop-color:#FFFFFF"/>
				<stop  offset="0.4784" style="stop-color:#FFFFFF"/>
				<stop  offset="0.6863" style="stop-color:#FFFFFF;stop-opacity:0.0667"/>
				<stop  offset="1" style="stop-color:#FFFFFF;stop-opacity:0"/>
			</radialGradient>
			<path fill-rule="evenodd" clip-rule="evenodd" fill="url(#SVGID_1_)" d="M14.2,14.37c-0.23,3.7-1.13,6.87-2.7,9.5
				c-1.47,2.67-3.15,4-5.05,4c-1.83,0-3.33-1.33-4.5-4c-1.1-2.63-1.53-5.8-1.3-9.5C0.98,10.6,1.9,7.38,3.4,4.72
				c1.5-2.57,3.2-3.85,5.1-3.85c1.8,0,3.27,1.28,4.4,3.85C14.07,7.38,14.5,10.6,14.2,14.37z"/>
		</g>
	</g>
	<g>
		<g>
			<polygon fill-rule="evenodd" clip-rule="evenodd" points="10.85,13.27 8.8,14.57 8.75,18.87 7.35,19.47 7.45,15.12 5.25,16.57 
				5.25,14.82 7.5,13.37 7.55,9.57 8.9,8.97 8.85,12.82 10.9,11.52 			"/>
		</g>
	</g>
</g>
</svg>
