<?xml version="1.0" encoding="utf-8"?>
<!-- Generator: Adobe Illustrator 16.0.0, SVG Export Plug-In . SVG Version: 6.00 Build 0)  -->
<!DOCTYPE svg PUBLIC "-//W3C//DTD SVG 1.1//EN" "http://www.w3.org/Graphics/SVG/1.1/DTD/svg11.dtd">
<svg version="1.1" id="Layer_1" xmlns="http://www.w3.org/2000/svg" xmlns:xlink="http://www.w3.org/1999/xlink" x="0px" y="0px"
	 width="17.5px" height="31.83px" viewBox="0 0 17.5 31.83" enable-background="new 0 0 17.5 31.83" xml:space="preserve">
<g>
	<g>
		<g>
			
				<radialGradient id="SVGID_1_" cx="-511.8252" cy="-462.5527" r="7.1341" gradientTransform="matrix(-0.9966 -0.0828 -0.1644 1.9792 -577.0933 888.9336)" gradientUnits="userSpaceOnUse">
				<stop  offset="0" style="stop-color:#FFFFFF"/>
				<stop  offset="0.4784" style="stop-color:#FFFFFF"/>
				<stop  offset="0.6863" style="stop-color:#FFFFFF;stop-opacity:0.0667"/>
				<stop  offset="1" style="stop-color:#FFFFFF;stop-opacity:0"/>
			</radialGradient>
			<path fill-rule="evenodd" clip-rule="evenodd" fill="url(#SVGID_1_)" d="M8,29.33c-1.83,0-3.33-1.35-4.5-4.05
				c-1.1-2.6-1.53-5.77-1.3-9.5c0.33-3.77,1.25-6.98,2.75-9.65c1.5-2.57,3.2-3.85,5.1-3.85c1.8,0,3.27,1.28,4.4,3.85
				c1.17,2.67,1.6,5.88,1.3,9.65c-0.23,3.73-1.13,6.9-2.7,9.5C11.58,27.98,9.9,29.33,8,29.33z"/>
		</g>
	</g>
	<g>
		<g>
			<polygon fill-rule="evenodd" clip-rule="evenodd" points="12.4,14.68 10.35,15.98 10.3,20.33 8.9,20.93 9,16.58 6.8,18.03 
				6.8,16.23 9.05,14.83 9.1,11.03 10.45,10.43 10.4,14.23 12.45,12.98 			"/>
		</g>
	</g>
</g>
</svg>
