<?xml version="1.0" encoding="utf-8"?>
<!-- Generator: Adobe Illustrator 16.0.0, SVG Export Plug-In . SVG Version: 6.00 Build 0)  -->
<!DOCTYPE svg PUBLIC "-//W3C//DTD SVG 1.1//EN" "http://www.w3.org/Graphics/SVG/1.1/DTD/svg11.dtd">
<svg version="1.1" id="Layer_2" xmlns="http://www.w3.org/2000/svg" xmlns:xlink="http://www.w3.org/1999/xlink" x="0px" y="0px"
	 width="123.125px" height="13.63px" viewBox="0 0 123.125 13.63" enable-background="new 0 0 123.125 13.63" xml:space="preserve">
<symbol  id="glaceenbn" viewBox="-2.325 -2.324 4.65 4.649">
	<g id="Layer_1_1_">
		<radialGradient id="SVGID_1_" cx="-0.0254" cy="0.0254" r="2.3629" gradientUnits="userSpaceOnUse">
			<stop  offset="0" style="stop-color:#FFFFFF"/>
			<stop  offset="0.1765" style="stop-color:#FFFFFF"/>
			<stop  offset="0.3059" style="stop-color:#FFFFFF;stop-opacity:0.4235"/>
			<stop  offset="0.4902" style="stop-color:#FFFFFF;stop-opacity:0.2314"/>
			<stop  offset="0.651" style="stop-color:#FFFFFF;stop-opacity:0.0824"/>
			<stop  offset="1" style="stop-color:#FFFFFF;stop-opacity:0"/>
		</radialGradient>
		<path fill="url(#SVGID_1_)" d="M1.625,1.625c0.47-0.43,0.7-0.97,0.7-1.6c0-0.67-0.23-1.221-0.7-1.65
			c-0.47-0.469-1.02-0.699-1.65-0.699s-1.18,0.23-1.65,0.699c-0.43,0.43-0.65,0.98-0.65,1.65c0,0.63,0.22,1.17,0.65,1.6
			c0.47,0.471,1.02,0.699,1.65,0.699S1.155,2.096,1.625,1.625z"/>
	</g>
</symbol>
<g>
	<g>
		
			<linearGradient id="SVGID_2_" gradientUnits="userSpaceOnUse" x1="-346.0698" y1="8525.9199" x2="-344.7198" y2="8525.7646" gradientTransform="matrix(0 5.1483 -4.7662 0 40656.6055 1784.6729)">
			<stop  offset="0" style="stop-color:#050505"/>
			<stop  offset="0.3922" style="stop-color:#808080"/>
			<stop  offset="0.7255" style="stop-color:#FFFFFF"/>
			<stop  offset="0.8824" style="stop-color:#FFFFFF"/>
		</linearGradient>
		<path fill="url(#SVGID_2_)" d="M1.67,6.43h37.77l0.121-1.54V4.75c-0.131-1.7-0.281-2.95-0.48-3.73h-0.24L1.67,6.43z"/>
		
			<linearGradient id="SVGID_3_" gradientUnits="userSpaceOnUse" x1="-346.4824" y1="8513.3047" x2="-344.1318" y2="8513.3047" gradientTransform="matrix(0 5.1483 -4.7662 0 40656.6055 1784.6729)">
			<stop  offset="0" style="stop-color:#3E3E3E"/>
			<stop  offset="0.1137" style="stop-color:#747474"/>
			<stop  offset="0.2431" style="stop-color:#FFFFFF"/>
			<stop  offset="0.4275" style="stop-color:#808080"/>
			<stop  offset="0.6314" style="stop-color:#E6E6E6"/>
			<stop  offset="0.9294" style="stop-color:#555555"/>
			<stop  offset="1" style="stop-color:#424242"/>
		</linearGradient>
		<path fill="url(#SVGID_3_)" d="M39.08,13.12h81.699c1.511-4.36,1.511-8.39,0-12.101H39.08c0.189,0.78,0.35,2.03,0.48,3.73v0.13
			l-0.121,1.54L39.08,13.12z"/>
		
			<linearGradient id="SVGID_4_" gradientUnits="userSpaceOnUse" x1="-490.6733" y1="8564.748" x2="-489.5663" y2="8564.748" gradientTransform="matrix(0.5382 -5.1153 4.7215 0.7169 -40154.1406 -8638.959)">
			<stop  offset="0" style="stop-color:#484848"/>
			<stop  offset="0.298" style="stop-color:#484848"/>
			<stop  offset="0.4235" style="stop-color:#808080"/>
			<stop  offset="0.5882" style="stop-color:#808080"/>
			<stop  offset="0.7922" style="stop-color:#E1E1E1"/>
			<stop  offset="1" style="stop-color:#FFFFFF"/>
		</linearGradient>
		<polygon fill="url(#SVGID_4_)" points="39.08,13.12 39.439,6.43 1.67,6.43 38.84,13.12 		"/>
	</g>
</g>
<use xlink:href="#glaceenbn"  width="4.65" height="4.649" x="-2.325" y="-2.324" transform="matrix(0.0316 0.9211 -3.7796 -0.4148 29.3931 8.7578)" overflow="visible"/>
</svg>
